<svg xmlns="http://www.w3.org/2000/svg" viewBox="0 0 126.09 50.96"><defs><style>.cls-1{fill:#1d1d1b;}</style></defs><g id="Layer_2" data-name="Layer 2"><g id="Lag_1" data-name="Lag 1"><path class="cls-1" d="M24.44,20.9C19.94,17.8,13.79,18,9.1,20.56S1.2,28.44.3,33.74c-.85,5-.07,11.1,4.66,14,4.41,2.72,10.14,1,13.7-2.31C23.38,41,23.92,34,24.26,27.89L20,29.66A42.63,42.63,0,0,1,31,49.18c.8,3.12,5.62,1.8,4.82-1.33A47.8,47.8,0,0,0,23.53,26.12a2.53,2.53,0,0,0-4.27,1.77c-.24,4.28-.47,8.88-2.89,12.57-1.62,2.47-5.11,4.33-7.89,3.45-3.24-1-3.76-5.23-3.45-8.16a14.71,14.71,0,0,1,5.27-10,10,10,0,0,1,11.61-.51,2.5,2.5,0,0,0,2.53-4.32Z"/><path class="cls-1" d="M32.08,8a148.46,148.46,0,0,0,6.24,36.27l4.83-1.33c-.91-2.72-.2-6.14,2.4-7.7a5.48,5.48,0,0,1,7.05,1.27,4.71,4.71,0,0,1-1.17,6.38c-3.26,2.07-7.89-.76-10.69-2.41s-5.3,2.69-2.53,4.32c3.9,2.29,8.48,4.52,13.11,3.47a9.5,9.5,0,0,0,1.59-17.75A10.71,10.71,0,0,0,41.55,32a11.69,11.69,0,0,0-3.23,12.26c1,3,5.77,1.77,4.83-1.33A142.53,142.53,0,0,1,37.08,8c-.16-3.21-5.16-3.23-5,0Z"/><path class="cls-1" d="M76,23.73a11.2,11.2,0,0,0-10.23-.43c-3.14,1.39-5.67,4.68-5.39,8.24a9.55,9.55,0,0,0,6.43,8.26,7.74,7.74,0,0,0,9.09-4.14c1.75-3.57,1.52-7.65,1-11.48a2.52,2.52,0,0,0-3.08-1.75,2.59,2.59,0,0,0-1.75,3.08c.08.56-.07-.61,0,0,0,.16,0,.32,0,.48,0,.33.07.66.1,1,.05.69.08,1.39.07,2.08s0,1.26-.1,1.89.1-.59,0,0c0,.16-.05.32-.08.47-.07.33-.14.66-.24,1s-.17.53-.26.79c-.19.51.26-.52,0,0l-.2.39c-.13.24-.36.48-.47.73.21-.49.23-.28,0-.06a5.14,5.14,0,0,1-.41.4,2.15,2.15,0,0,0-.22.19l.27-.21-.24.17L70,34.9l-.14.07c-.24.12-.18.1.18,0a3.14,3.14,0,0,0-.88.25l.37-.05-.3,0c-.19,0-.39,0-.58,0a2.24,2.24,0,1,0,.23,0,1.5,1.5,0,0,0-.43-.09L68,34.93c-.51-.15.52.28,0,0-.27-.15-.53-.28-.79-.45l-.12-.09c-.22-.15-.17-.12.13.12,0-.11-.37-.33-.46-.41s-.36-.38-.53-.57c-.38-.4.3.47,0,0-.08-.13-.17-.26-.26-.39s-.29-.74-.44-.82l.14.31c0-.1-.08-.2-.11-.29a4.36,4.36,0,0,1-.17-.59c0-.13,0-.26-.08-.38-.1-.33,0,.65,0,.13a3.46,3.46,0,0,0,0-.91l0,.35c0-.1,0-.2.06-.3a3.74,3.74,0,0,1,.12-.45,2.45,2.45,0,0,0,.15-.43c-.15.36-.18.42-.06.18l.13-.26c.09-.16.37-.45.4-.62l-.21.27.19-.23a3,3,0,0,1,.3-.32l.32-.3c.24-.22.4-.14,0,0a7.63,7.63,0,0,0,.88-.56c.13-.08.26-.14.4-.21l.2-.09c.17-.08.09-.05-.25.1a4.41,4.41,0,0,0,1-.33l.44-.1.3-.06-.21,0c.34,0,.72-.07,1.07-.07s.61,0,.92.05c.55,0-.6-.12-.06,0l.6.13a6.27,6.27,0,0,0,1,.33l-.32-.13.27.13c.19.09.36.19.54.29A2.5,2.5,0,1,0,76,23.73Z"/><path class="cls-1" d="M78.89,24.32c-.56,3.61-1.09,7.29-.22,10.91a11.8,11.8,0,0,0,5.17,7.25,8.7,8.7,0,0,0,8.87,0A11.94,11.94,0,0,0,98,35.32c1-4,.25-8.16-.57-12.13a2.53,2.53,0,0,0-3.07-1.75,2.55,2.55,0,0,0-1.75,3.08,26.35,26.35,0,0,1,.83,8.1,7.42,7.42,0,0,1-2.51,5l-.28.24s.25-.18,0,0-.47.31-.72.45-.64.26-.28.14a7.32,7.32,0,0,1-.8.23c-.07,0-.56.08-.27.05s-.13,0-.15,0c-.24,0-.49,0-.74,0,.4,0-.17-.06-.29-.09l-.35-.1c-.15-.05-.5-.23-.19-.07-.22-.11-.43-.23-.64-.36s-.56-.4-.29-.18a8.42,8.42,0,0,1-1.22-1.24c.21.26-.15-.24-.2-.32s-.26-.43-.38-.65-.16-.3-.23-.45-.17-.38-.08-.17-.06-.17-.06-.17c0-.16-.11-.31-.16-.47-.83-2.8-.37-6,.07-8.8A2.59,2.59,0,0,0,82,22.57a2.52,2.52,0,0,0-3.07,1.75Z"/><path class="cls-1" d="M103.57,3.15c1.43,8.54,2.73,17.11,4.31,25.62.67,3.54,1.81,7.35,4.63,9.8a9.22,9.22,0,0,0,10.23,1.7,2.52,2.52,0,0,0,.9-3.42,2.54,2.54,0,0,0-3.42-.9c-2,1-4.46-.76-5.49-2.41-1.69-2.74-2-6.11-2.56-9.22l-3.78-22.5A2.52,2.52,0,0,0,105.31.08a2.55,2.55,0,0,0-1.74,3.07Z"/><path class="cls-1" d="M101.17,19.45h22.5c3.22,0,3.22-5,0-5h-22.5c-3.22,0-3.22,5,0,5Z"/></g></g></svg>